<svg width="41" height="40" viewBox="0 0 41 40" fill="none" xmlns="http://www.w3.org/2000/svg">
<path fill-rule="evenodd" clip-rule="evenodd" d="M30.2687 4.74135H38.1612C38.5437 4.74135 38.9275 4.8951 39.2337 5.20135C39.54 5.5076 39.6937 5.89135 39.6937 6.27385V37.6913C39.6937 38.0738 39.54 38.4576 39.2337 38.7639C38.9275 39.0701 38.5437 39.2238 38.1612 39.2238H1.99246C1.60996 39.2238 1.22621 39.0701 0.919961 38.7639C0.613711 38.4576 0.459961 38.0738 0.459961 37.6913V6.27385C0.459961 5.89135 0.613711 5.5076 0.919961 5.20135C1.22621 4.8951 1.60996 4.74135 1.99246 4.74135H9.88496V1.6001H11.4175V4.74135H28.735V1.6001H30.2675V4.74135H30.2687ZM0.459961 14.1663H39.6937V12.5576H0.459961C0.459961 12.5576 0.459961 14.1663 0.459961 14.1663ZM25.5175 21.9826V18.8413H22.3762V21.9826H25.5175ZM33.41 21.9826V18.8413H30.2687V21.9826H33.41ZM9.88496 29.8751V26.7338H6.74371V29.8751H9.88496ZM17.7775 29.8751V26.7338H14.6362V29.8751H17.7775ZM25.5937 29.8751V26.7338H22.4525V29.8751H25.5937ZM9.88496 22.0588V18.9176H6.74371V22.0588H9.88496ZM17.7775 22.0588V18.9176H14.6362V22.0588H17.7775Z" fill="#529535"/>
</svg>
