<svg width="18" height="18" viewBox="0 0 18 18" fill="none" xmlns="http://www.w3.org/2000/svg">
<g id="todo-solid">
<path id="Color" fill-rule="evenodd" clip-rule="evenodd" d="M16.6165 0.720533H6.03029C5.71979 0.720533 5.47848 0.824033 5.27148 1.03103C5.06448 1.23803 4.96098 1.47935 4.96098 1.78985V15.8934C4.96098 16.2039 5.06448 16.4452 5.27148 16.6522C5.47848 16.8592 5.71979 16.9627 6.03029 16.9627H16.6165C16.927 16.9627 17.1684 16.8592 17.3754 16.6522C17.5824 16.4452 17.6859 16.2039 17.6859 15.8934V1.78985C17.6859 1.47935 17.5824 1.23803 17.3754 1.03103C17.1684 0.824033 16.927 0.720533 16.6165 0.720533ZM9.82323 11.9272L8.40966 13.3408C8.27185 13.41 8.20266 13.4443 8.16835 13.4443C8.13404 13.4443 8.03054 13.41 7.89273 13.3408L7.2031 12.6168C7.13391 12.5477 7.0996 12.479 7.0996 12.3755C7.0996 12.1342 7.2031 12.0307 7.44441 12.0307C7.54791 12.0307 7.61654 12.065 7.68573 12.1342L8.16835 12.5825L9.30629 11.4103C9.37548 11.3411 9.4441 11.3068 9.5476 11.3068C9.78891 11.3068 9.92673 11.4446 9.92673 11.6859C9.92673 11.7894 9.89241 11.858 9.82323 11.9272ZM9.82323 8.3756L8.40966 9.78916C8.34048 9.85835 8.27185 9.89266 8.16835 9.89266C8.06485 9.89266 7.96135 9.85835 7.89273 9.78916L7.2031 9.09953C7.13391 9.03035 7.0996 8.96172 7.0996 8.85822C7.0996 8.61691 7.2031 8.4791 7.44441 8.4791C7.54791 8.4791 7.61654 8.51341 7.68573 8.5826L8.16835 9.03091L9.30629 7.89297C9.37548 7.82378 9.4441 7.78947 9.5476 7.78947C9.78891 7.78947 9.92673 7.89297 9.92673 8.13428C9.92673 8.23778 9.89241 8.30641 9.82323 8.3756ZM9.82323 4.85828L8.40966 6.27185C8.34048 6.34103 8.27185 6.37535 8.16835 6.37535C8.06485 6.37535 7.96135 6.34103 7.89273 6.27185L7.2031 5.54791C7.13391 5.47872 7.0996 5.4101 7.0996 5.3066C7.0996 5.06528 7.2031 4.96178 7.44441 4.96178C7.54791 4.96178 7.61654 4.9961 7.68573 5.06528L8.16835 5.5136L9.30629 4.34135C9.37548 4.27216 9.47841 4.23785 9.58191 4.23785C9.82323 4.23785 9.92673 4.34135 9.92673 4.58266C9.92673 4.68616 9.89241 4.78966 9.82323 4.85828ZM15.2024 12.7203H10.9612C10.7199 12.7203 10.6164 12.6168 10.6164 12.3755C10.6164 12.1342 10.7199 12.0307 10.9612 12.0307H15.2024C15.4437 12.0307 15.5815 12.1342 15.5815 12.3755C15.5815 12.6168 15.4437 12.7203 15.2024 12.7203ZM15.2024 9.2036H10.9612C10.7199 9.2036 10.6164 9.06578 10.6164 8.82447C10.6164 8.58316 10.7199 8.47966 10.9612 8.47966H15.2024C15.4437 8.47966 15.5815 8.58316 15.5815 8.82447C15.5815 9.06578 15.4437 9.2036 15.2024 9.2036ZM15.2024 5.65141H10.9612C10.7199 5.65141 10.6164 5.54791 10.6164 5.3066C10.6164 5.06528 10.7199 4.96178 10.9612 4.96178H15.2024C15.4437 4.96178 15.5815 5.06528 15.5815 5.3066C15.5815 5.54791 15.4437 5.65141 15.2024 5.65141ZM3.54741 1.78928V3.54766H0.719727V1.78928C0.719727 1.47878 0.823227 1.23747 1.03023 1.03047C1.23723 0.823471 1.47854 0.719971 1.78904 0.719971H2.51298C2.82348 0.719971 3.06479 0.823471 3.27179 1.03047C3.44391 1.23747 3.54741 1.47878 3.54741 1.78928ZM0.719727 15.8928V4.23785H3.54741V15.8928C3.54741 16.2033 3.44391 16.4447 3.27179 16.6517C3.06479 16.8587 2.82348 16.9622 2.51298 16.9622H1.78904C1.47854 16.9622 1.23723 16.8587 1.03023 16.6517C0.823227 16.4447 0.719727 16.2033 0.719727 15.8928C0.719727 15.8928 0.719727 15.8928 0.719727 15.8928Z" fill="#529535"/>
</g>
</svg>
